<?xml version="1.0" encoding="utf-8"?>
<!-- Svg Vector Icons : http://www.onlinewebfonts.com/icon -->
<!DOCTYPE svg PUBLIC "-//W3C//DTD SVG 1.1//EN" "http://www.w3.org/Graphics/SVG/1.1/DTD/svg11.dtd">
<svg version="1.1" xmlns="http://www.w3.org/2000/svg" xmlns:xlink="http://www.w3.org/1999/xlink" x="0px" y="0px" viewBox="0 0 1000 1000" enable-background="new 0 0 1000 1000" xml:space="preserve">
<metadata> Svg Vector Icons : http://www.onlinewebfonts.com/icon </metadata>
<g><g transform="translate(0.000000,511.000000) scale(0.100000,-0.100000)"><path d="M2978.4,4944.9c-171.4-75.4-339.4-240-438.8-428.5l-75.4-140.6l-10.3-4196.2c-10.3-4686.4-20.6-4432.7,226.3-4689.8c195.4-198.8,353.1-264,695.9-277.7c161.1-6.9,356.5,3.4,438.8,27.4c185.1,48,408,246.8,493.7,445.7c68.6,150.9,68.6,216,68.6,4422.4c0,4707,13.7,4377.9-216,4641.8C3976,4958.6,3838.9,5010,3451.5,5010C3201.2,5010,3081.2,4992.9,2978.4,4944.9z M3832,4595.2c202.3-161.1,192,116.6,192-4494.4c0-4131-3.4-4230.4-68.6-4336.7c-102.8-171.4-240-226.3-551.9-209.1c-284.5,10.3-384,58.3-524.5,246.8c-72,92.5-72,106.3-72,4305.9v4213.3l72,96c144,195.4,270.8,250.3,579.4,250.3C3691.4,4667.2,3756.6,4653.5,3832,4595.2z"/><path d="M6132.4,4931.2c-188.6-89.1-370.2-277.7-459.4-466.3c-48-113.1-54.9-524.5-54.9-4374.4v-4251l75.4-137.1c85.7-161.1,253.7-325.7,421.7-414.8c181.7-99.4,819.4-92.6,1011.3,6.8c188.6,96,346.2,315.4,390.8,534.8c27.4,126.8,37.7,1433,30.8,4367.6l-10.3,4182.5l-102.8,202.3c-68.6,137.1-154.3,236.5-250.3,308.5c-140.6,96-171.4,102.8-514.2,113.1C6344.9,5010,6286.6,5003.1,6132.4,4931.2z M6955.1,4626c48-20.6,123.4-96,164.6-161.1l75.4-123.4V107.6c0-4141.3,0-4237.3-68.6-4343.6c-89.1-150.8-240-216-504-216c-250.3,0-459.4,82.3-569.1,222.8l-75.4,96V90.5v4223.6l78.8,113.1c116.6,174.8,274.3,240,562.2,240C6756.3,4667.2,6907.1,4650,6955.1,4626z"/></g></g>
</svg>